STARTFONT 2.1
COMMENT This font is a free software.
COMMENT Unlimited permission is granted to use, copy, and distribute it,
COMMENT with or without modification, either commercially and noncommercially.
COMMENT THIS FONT IS PROVIDED "AS IS" WITHOUT WARRANTY.
FONT -mplus-hlv-bold-R-normal--10-100-75-75-P-60-iso8859-1
SIZE 10 75 75
FONTBOUNDINGBOX 9 11 -1 -2
STARTPROPERTIES 20
FONTNAME_REGISTRY ""
FOUNDRY "mplus"
FAMILY_NAME "hlv"
WEIGHT_NAME "bold"
SLANT "R"
SETWIDTH_NAME "normal"
ADD_STYLE_NAME ""
PIXEL_SIZE 10
POINT_SIZE 100
RESOLUTION_X 75
RESOLUTION_Y 75
SPACING "P"
AVERAGE_WIDTH 60
CHARSET_REGISTRY "iso8859"
CHARSET_ENCODING "1"
COPYRIGHT "Copyright (C) 2002-2004 COZ"
DEFAULT_CHAR 32
FONT_DESCENT 3
FONT_ASCENT 9
_XMBDFED_INFO "Edited with xmbdfed 4.5."
ENDPROPERTIES
CHARS 192
STARTCHAR 0x0020
ENCODING 32
SWIDTH 480 0
DWIDTH 5 0
BBX 0 0 0 0
BITMAP
ENDCHAR
STARTCHAR 0x0021
ENCODING 33
SWIDTH 480 0
DWIDTH 5 0
BBX 2 7 1 0
BITMAP
C0
C0
C0
C0
C0
00
C0
ENDCHAR
STARTCHAR 0x0022
ENCODING 34
SWIDTH 576 0
DWIDTH 6 0
BBX 5 3 0 5
BITMAP
D8
D8
D8
ENDCHAR
STARTCHAR 0x0023
ENCODING 35
SWIDTH 768 0
DWIDTH 8 0
BBX 7 7 0 0
BITMAP
6C
6C
FE
6C
FE
6C
6C
ENDCHAR
STARTCHAR 0x0024
ENCODING 36
SWIDTH 672 0
DWIDTH 7 0
BBX 6 8 0 -1
BITMAP
10
7C
D0
78
3C
EC
78
20
ENDCHAR
STARTCHAR 0x0025
ENCODING 37
SWIDTH 864 0
DWIDTH 9 0
BBX 8 7 0 0
BITMAP
60
F6
6C
18
36
6F
06
ENDCHAR
STARTCHAR 0x0026
ENCODING 38
SWIDTH 672 0
DWIDTH 7 0
BBX 6 7 0 0
BITMAP
70
D8
D8
70
DC
D8
6C
ENDCHAR
STARTCHAR 0x0027
ENCODING 39
SWIDTH 480 0
DWIDTH 5 0
BBX 2 3 1 5
BITMAP
C0
C0
C0
ENDCHAR
STARTCHAR 0x0028
ENCODING 40
SWIDTH 672 0
DWIDTH 7 0
BBX 4 9 1 -1
BITMAP
30
60
60
C0
C0
C0
60
60
30
ENDCHAR
STARTCHAR 0x0029
ENCODING 41
SWIDTH 672 0
DWIDTH 7 0
BBX 4 9 1 -1
BITMAP
C0
60
60
30
30
30
60
60
C0
ENDCHAR
STARTCHAR 0x002A
ENCODING 42
SWIDTH 576 0
DWIDTH 6 0
BBX 5 7 0 0
BITMAP
20
A8
F8
70
F8
A8
20
ENDCHAR
STARTCHAR 0x002B
ENCODING 43
SWIDTH 672 0
DWIDTH 7 0
BBX 6 5 0 1
BITMAP
30
30
FC
30
30
ENDCHAR
STARTCHAR 0x002C
ENCODING 44
SWIDTH 672 0
DWIDTH 7 0
BBX 3 3 1 -1
BITMAP
60
60
C0
ENDCHAR
STARTCHAR 0x002D
ENCODING 45
SWIDTH 672 0
DWIDTH 7 0
BBX 6 1 0 3
BITMAP
FC
ENDCHAR
STARTCHAR 0x002E
ENCODING 46
SWIDTH 672 0
DWIDTH 7 0
BBX 2 2 2 0
BITMAP
C0
C0
ENDCHAR
STARTCHAR 0x002F
ENCODING 47
SWIDTH 768 0
DWIDTH 8 0
BBX 5 8 1 -1
BITMAP
18
18
30
30
60
60
C0
C0
ENDCHAR
STARTCHAR 0x0030
ENCODING 48
SWIDTH 672 0
DWIDTH 7 0
BBX 6 7 0 0
BITMAP
78
CC
CC
CC
CC
CC
78
ENDCHAR
STARTCHAR 0x0031
ENCODING 49
SWIDTH 672 0
DWIDTH 7 0
BBX 4 7 0 0
BITMAP
30
70
B0
30
30
30
30
ENDCHAR
STARTCHAR 0x0032
ENCODING 50
SWIDTH 672 0
DWIDTH 7 0
BBX 6 7 0 0
BITMAP
78
CC
CC
18
30
60
FC
ENDCHAR
STARTCHAR 0x0033
ENCODING 51
SWIDTH 672 0
DWIDTH 7 0
BBX 6 7 0 0
BITMAP
FC
18
30
78
0C
CC
78
ENDCHAR
STARTCHAR 0x0034
ENCODING 52
SWIDTH 672 0
DWIDTH 7 0
BBX 7 7 0 0
BITMAP
18
38
58
98
FE
18
18
ENDCHAR
STARTCHAR 0x0035
ENCODING 53
SWIDTH 672 0
DWIDTH 7 0
BBX 6 7 0 0
BITMAP
FC
C0
F8
0C
0C
CC
78
ENDCHAR
STARTCHAR 0x0036
ENCODING 54
SWIDTH 672 0
DWIDTH 7 0
BBX 6 7 0 0
BITMAP
78
C0
F8
CC
CC
CC
78
ENDCHAR
STARTCHAR 0x0037
ENCODING 55
SWIDTH 672 0
DWIDTH 7 0
BBX 6 7 0 0
BITMAP
FC
0C
18
30
30
60
60
ENDCHAR
STARTCHAR 0x0038
ENCODING 56
SWIDTH 672 0
DWIDTH 7 0
BBX 6 7 0 0
BITMAP
78
CC
CC
78
CC
CC
78
ENDCHAR
STARTCHAR 0x0039
ENCODING 57
SWIDTH 672 0
DWIDTH 7 0
BBX 6 7 0 0
BITMAP
78
CC
CC
CC
7C
0C
78
ENDCHAR
STARTCHAR 0x003A
ENCODING 58
SWIDTH 672 0
DWIDTH 7 0
BBX 2 6 2 0
BITMAP
C0
C0
00
00
C0
C0
ENDCHAR
STARTCHAR 0x003B
ENCODING 59
SWIDTH 672 0
DWIDTH 7 0
BBX 3 7 1 -1
BITMAP
60
60
00
00
60
60
C0
ENDCHAR
STARTCHAR 0x003C
ENCODING 60
SWIDTH 768 0
DWIDTH 8 0
BBX 5 7 1 0
BITMAP
18
30
60
C0
60
30
18
ENDCHAR
STARTCHAR 0x003D
ENCODING 61
SWIDTH 672 0
DWIDTH 7 0
BBX 6 3 0 2
BITMAP
FC
00
FC
ENDCHAR
STARTCHAR 0x003E
ENCODING 62
SWIDTH 768 0
DWIDTH 8 0
BBX 5 7 1 0
BITMAP
C0
60
30
18
30
60
C0
ENDCHAR
STARTCHAR 0x003F
ENCODING 63
SWIDTH 672 0
DWIDTH 7 0
BBX 6 7 0 0
BITMAP
78
CC
CC
18
30
00
30
ENDCHAR
STARTCHAR 0x0040
ENCODING 64
SWIDTH 672 0
DWIDTH 7 0
BBX 6 7 0 0
BITMAP
78
CC
DC
DC
DC
C0
78
ENDCHAR
STARTCHAR 0x0041
ENCODING 65
SWIDTH 768 0
DWIDTH 8 0
BBX 7 7 0 0
BITMAP
38
38
6C
6C
FE
C6
C6
ENDCHAR
STARTCHAR 0x0042
ENCODING 66
SWIDTH 672 0
DWIDTH 7 0
BBX 6 7 0 0
BITMAP
F8
CC
CC
F8
CC
CC
F8
ENDCHAR
STARTCHAR 0x0043
ENCODING 67
SWIDTH 672 0
DWIDTH 7 0
BBX 6 7 0 0
BITMAP
78
CC
C0
C0
C0
CC
78
ENDCHAR
STARTCHAR 0x0044
ENCODING 68
SWIDTH 672 0
DWIDTH 7 0
BBX 6 7 0 0
BITMAP
F8
CC
CC
CC
CC
CC
F8
ENDCHAR
STARTCHAR 0x0045
ENCODING 69
SWIDTH 576 0
DWIDTH 6 0
BBX 5 7 0 0
BITMAP
F8
C0
C0
F8
C0
C0
F8
ENDCHAR
STARTCHAR 0x0046
ENCODING 70
SWIDTH 576 0
DWIDTH 6 0
BBX 5 7 0 0
BITMAP
F8
C0
C0
F8
C0
C0
C0
ENDCHAR
STARTCHAR 0x0047
ENCODING 71
SWIDTH 672 0
DWIDTH 7 0
BBX 6 7 0 0
BITMAP
78
CC
C0
DC
CC
CC
7C
ENDCHAR
STARTCHAR 0x0048
ENCODING 72
SWIDTH 672 0
DWIDTH 7 0
BBX 6 7 0 0
BITMAP
CC
CC
CC
FC
CC
CC
CC
ENDCHAR
STARTCHAR 0x0049
ENCODING 73
SWIDTH 480 0
DWIDTH 5 0
BBX 2 7 1 0
BITMAP
C0
C0
C0
C0
C0
C0
C0
ENDCHAR
STARTCHAR 0x004A
ENCODING 74
SWIDTH 672 0
DWIDTH 7 0
BBX 6 7 0 0
BITMAP
0C
0C
0C
0C
CC
CC
78
ENDCHAR
STARTCHAR 0x004B
ENCODING 75
SWIDTH 672 0
DWIDTH 7 0
BBX 6 7 0 0
BITMAP
CC
D8
F0
E0
F0
D8
CC
ENDCHAR
STARTCHAR 0x004C
ENCODING 76
SWIDTH 576 0
DWIDTH 6 0
BBX 5 7 0 0
BITMAP
C0
C0
C0
C0
C0
C0
F8
ENDCHAR
STARTCHAR 0x004D
ENCODING 77
SWIDTH 864 0
DWIDTH 9 0
BBX 8 7 0 0
BITMAP
C3
E7
FF
DB
C3
C3
C3
ENDCHAR
STARTCHAR 0x004E
ENCODING 78
SWIDTH 672 0
DWIDTH 7 0
BBX 6 7 0 0
BITMAP
CC
EC
FC
DC
CC
CC
CC
ENDCHAR
STARTCHAR 0x004F
ENCODING 79
SWIDTH 672 0
DWIDTH 7 0
BBX 6 7 0 0
BITMAP
78
CC
CC
CC
CC
CC
78
ENDCHAR
STARTCHAR 0x0050
ENCODING 80
SWIDTH 672 0
DWIDTH 7 0
BBX 6 7 0 0
BITMAP
F8
CC
CC
CC
F8
C0
C0
ENDCHAR
STARTCHAR 0x0051
ENCODING 81
SWIDTH 672 0
DWIDTH 7 0
BBX 6 9 0 -2
BITMAP
78
CC
CC
CC
CC
CC
78
30
1C
ENDCHAR
STARTCHAR 0x0052
ENCODING 82
SWIDTH 672 0
DWIDTH 7 0
BBX 6 7 0 0
BITMAP
F8
CC
CC
F8
CC
CC
CC
ENDCHAR
STARTCHAR 0x0053
ENCODING 83
SWIDTH 672 0
DWIDTH 7 0
BBX 6 7 0 0
BITMAP
78
CC
E0
78
1C
CC
78
ENDCHAR
STARTCHAR 0x0054
ENCODING 84
SWIDTH 672 0
DWIDTH 7 0
BBX 6 7 0 0
BITMAP
FC
30
30
30
30
30
30
ENDCHAR
STARTCHAR 0x0055
ENCODING 85
SWIDTH 672 0
DWIDTH 7 0
BBX 6 7 0 0
BITMAP
CC
CC
CC
CC
CC
CC
78
ENDCHAR
STARTCHAR 0x0056
ENCODING 86
SWIDTH 672 0
DWIDTH 7 0
BBX 6 7 0 0
BITMAP
CC
CC
CC
CC
D8
F0
60
ENDCHAR
STARTCHAR 0x0057
ENCODING 87
SWIDTH 864 0
DWIDTH 9 0
BBX 8 7 0 0
BITMAP
DB
DB
DB
DB
DB
7E
66
ENDCHAR
STARTCHAR 0x0058
ENCODING 88
SWIDTH 672 0
DWIDTH 7 0
BBX 6 7 0 0
BITMAP
CC
CC
78
30
78
CC
CC
ENDCHAR
STARTCHAR 0x0059
ENCODING 89
SWIDTH 672 0
DWIDTH 7 0
BBX 6 7 0 0
BITMAP
CC
CC
CC
78
30
30
30
ENDCHAR
STARTCHAR 0x005A
ENCODING 90
SWIDTH 576 0
DWIDTH 6 0
BBX 5 7 0 0
BITMAP
F8
18
38
70
E0
C0
F8
ENDCHAR
STARTCHAR 0x005B
ENCODING 91
SWIDTH 672 0
DWIDTH 7 0
BBX 4 9 1 -1
BITMAP
F0
C0
C0
C0
C0
C0
C0
C0
F0
ENDCHAR
STARTCHAR 0x005C
ENCODING 92
SWIDTH 768 0
DWIDTH 8 0
BBX 5 8 1 -1
BITMAP
C0
C0
60
60
30
30
18
18
ENDCHAR
STARTCHAR 0x005D
ENCODING 93
SWIDTH 672 0
DWIDTH 7 0
BBX 4 9 1 -1
BITMAP
F0
30
30
30
30
30
30
30
F0
ENDCHAR
STARTCHAR 0x005E
ENCODING 94
SWIDTH 672 0
DWIDTH 7 0
BBX 6 3 0 5
BITMAP
30
78
CC
ENDCHAR
STARTCHAR 0x005F
ENCODING 95
SWIDTH 672 0
DWIDTH 7 0
BBX 6 1 0 -1
BITMAP
FC
ENDCHAR
STARTCHAR 0x0060
ENCODING 96
SWIDTH 576 0
DWIDTH 6 0
BBX 3 4 1 4
BITMAP
C0
C0
60
60
ENDCHAR
STARTCHAR 0x0061
ENCODING 97
SWIDTH 576 0
DWIDTH 6 0
BBX 5 5 0 0
BITMAP
70
18
78
D8
78
ENDCHAR
STARTCHAR 0x0062
ENCODING 98
SWIDTH 576 0
DWIDTH 6 0
BBX 5 7 0 0
BITMAP
C0
C0
F0
D8
D8
D8
F0
ENDCHAR
STARTCHAR 0x0063
ENCODING 99
SWIDTH 576 0
DWIDTH 6 0
BBX 5 5 0 0
BITMAP
70
D8
C0
C0
78
ENDCHAR
STARTCHAR 0x0064
ENCODING 100
SWIDTH 576 0
DWIDTH 6 0
BBX 5 7 0 0
BITMAP
18
18
78
D8
D8
D8
78
ENDCHAR
STARTCHAR 0x0065
ENCODING 101
SWIDTH 576 0
DWIDTH 6 0
BBX 5 5 0 0
BITMAP
70
D8
F8
C0
78
ENDCHAR
STARTCHAR 0x0066
ENCODING 102
SWIDTH 576 0
DWIDTH 6 0
BBX 5 7 0 0
BITMAP
38
60
60
F8
60
60
60
ENDCHAR
STARTCHAR 0x0067
ENCODING 103
SWIDTH 576 0
DWIDTH 6 0
BBX 5 7 0 -2
BITMAP
78
D8
D8
D8
78
18
70
ENDCHAR
STARTCHAR 0x0068
ENCODING 104
SWIDTH 576 0
DWIDTH 6 0
BBX 5 7 0 0
BITMAP
C0
C0
F0
D8
D8
D8
D8
ENDCHAR
STARTCHAR 0x0069
ENCODING 105
SWIDTH 480 0
DWIDTH 5 0
BBX 2 8 1 0
BITMAP
C0
00
00
C0
C0
C0
C0
C0
ENDCHAR
STARTCHAR 0x006A
ENCODING 106
SWIDTH 576 0
DWIDTH 6 0
BBX 4 10 0 -2
BITMAP
30
00
00
30
30
30
30
30
30
E0
ENDCHAR
STARTCHAR 0x006B
ENCODING 107
SWIDTH 576 0
DWIDTH 6 0
BBX 5 7 0 0
BITMAP
C0
C0
D8
F0
E0
F0
D8
ENDCHAR
STARTCHAR 0x006C
ENCODING 108
SWIDTH 480 0
DWIDTH 5 0
BBX 2 7 1 0
BITMAP
C0
C0
C0
C0
C0
C0
C0
ENDCHAR
STARTCHAR 0x006D
ENCODING 109
SWIDTH 864 0
DWIDTH 9 0
BBX 8 5 0 0
BITMAP
FE
DB
DB
DB
DB
ENDCHAR
STARTCHAR 0x006E
ENCODING 110
SWIDTH 576 0
DWIDTH 6 0
BBX 5 5 0 0
BITMAP
F0
D8
D8
D8
D8
ENDCHAR
STARTCHAR 0x006F
ENCODING 111
SWIDTH 576 0
DWIDTH 6 0
BBX 5 5 0 0
BITMAP
70
D8
D8
D8
70
ENDCHAR
STARTCHAR 0x0070
ENCODING 112
SWIDTH 576 0
DWIDTH 6 0
BBX 5 7 0 -2
BITMAP
F0
D8
D8
D8
F0
C0
C0
ENDCHAR
STARTCHAR 0x0071
ENCODING 113
SWIDTH 576 0
DWIDTH 6 0
BBX 5 7 0 -2
BITMAP
78
D8
D8
D8
78
18
18
ENDCHAR
STARTCHAR 0x0072
ENCODING 114
SWIDTH 576 0
DWIDTH 6 0
BBX 5 5 0 0
BITMAP
D8
E0
C0
C0
C0
ENDCHAR
STARTCHAR 0x0073
ENCODING 115
SWIDTH 576 0
DWIDTH 6 0
BBX 5 5 0 0
BITMAP
78
E0
70
38
F0
ENDCHAR
STARTCHAR 0x0074
ENCODING 116
SWIDTH 576 0
DWIDTH 6 0
BBX 5 7 0 0
BITMAP
60
60
F8
60
60
60
38
ENDCHAR
STARTCHAR 0x0075
ENCODING 117
SWIDTH 576 0
DWIDTH 6 0
BBX 5 5 0 0
BITMAP
D8
D8
D8
D8
78
ENDCHAR
STARTCHAR 0x0076
ENCODING 118
SWIDTH 576 0
DWIDTH 6 0
BBX 5 5 0 0
BITMAP
D8
D8
D8
F0
60
ENDCHAR
STARTCHAR 0x0077
ENCODING 119
SWIDTH 864 0
DWIDTH 9 0
BBX 8 5 0 0
BITMAP
DB
DB
DB
7E
66
ENDCHAR
STARTCHAR 0x0078
ENCODING 120
SWIDTH 672 0
DWIDTH 7 0
BBX 6 5 0 0
BITMAP
DC
78
30
78
EC
ENDCHAR
STARTCHAR 0x0079
ENCODING 121
SWIDTH 576 0
DWIDTH 6 0
BBX 5 7 0 -2
BITMAP
D8
D8
D8
D8
78
18
70
ENDCHAR
STARTCHAR 0x007A
ENCODING 122
SWIDTH 576 0
DWIDTH 6 0
BBX 5 5 0 0
BITMAP
F8
38
70
E0
F8
ENDCHAR
STARTCHAR 0x007B
ENCODING 123
SWIDTH 864 0
DWIDTH 9 0
BBX 6 9 1 -1
BITMAP
1C
30
30
30
E0
30
30
30
1C
ENDCHAR
STARTCHAR 0x007C
ENCODING 124
SWIDTH 672 0
DWIDTH 7 0
BBX 2 9 2 -1
BITMAP
C0
C0
C0
C0
C0
C0
C0
C0
C0
ENDCHAR
STARTCHAR 0x007D
ENCODING 125
SWIDTH 864 0
DWIDTH 9 0
BBX 6 9 1 -1
BITMAP
E0
30
30
30
1C
30
30
30
E0
ENDCHAR
STARTCHAR 0x007E
ENCODING 126
SWIDTH 768 0
DWIDTH 8 0
BBX 7 2 0 5
BITMAP
76
DC
ENDCHAR
STARTCHAR 0x007F
ENCODING 127
SWIDTH 576 0
DWIDTH 6 0
BBX 0 0 0 0
BITMAP
ENDCHAR
STARTCHAR 0x00A0
ENCODING 160
SWIDTH 0 0
DWIDTH 0 0
BBX 0 0 0 0
BITMAP
ENDCHAR
STARTCHAR 0x00A1
ENCODING 161
SWIDTH 480 0
DWIDTH 5 0
BBX 2 7 1 0
BITMAP
C0
00
C0
C0
C0
C0
C0
ENDCHAR
STARTCHAR 0x00A2
ENCODING 162
SWIDTH 576 0
DWIDTH 6 0
BBX 5 8 0 -1
BITMAP
10
10
78
D8
D0
D0
78
10
ENDCHAR
STARTCHAR 0x00A3
ENCODING 163
SWIDTH 672 0
DWIDTH 7 0
BBX 6 7 0 0
BITMAP
38
6C
60
F8
60
70
CC
ENDCHAR
STARTCHAR 0x00A4
ENCODING 164
SWIDTH 576 0
DWIDTH 6 0
BBX 5 5 0 1
BITMAP
D8
F8
50
F8
D8
ENDCHAR
STARTCHAR 0x00A5
ENCODING 165
SWIDTH 672 0
DWIDTH 7 0
BBX 6 7 0 0
BITMAP
CC
CC
48
FC
30
FC
30
ENDCHAR
STARTCHAR 0x00A6
ENCODING 166
SWIDTH 672 0
DWIDTH 7 0
BBX 2 9 2 -1
BITMAP
C0
C0
C0
C0
00
C0
C0
C0
C0
ENDCHAR
STARTCHAR 0x00A7
ENCODING 167
SWIDTH 576 0
DWIDTH 6 0
BBX 5 9 0 -1
BITMAP
70
D8
C0
70
D8
70
18
D8
70
ENDCHAR
STARTCHAR 0x00A8
ENCODING 168
SWIDTH 576 0
DWIDTH 6 0
BBX 5 2 0 5
BITMAP
D8
D8
ENDCHAR
STARTCHAR 0x00A9
ENCODING 169
SWIDTH 768 0
DWIDTH 8 0
BBX 7 7 0 0
BITMAP
7C
C6
BA
B2
BA
C6
7C
ENDCHAR
STARTCHAR 0x00AA
ENCODING 170
SWIDTH 576 0
DWIDTH 6 0
BBX 5 7 0 0
BITMAP
70
18
78
D8
78
00
F8
ENDCHAR
STARTCHAR 0x00AB
ENCODING 171
SWIDTH 864 0
DWIDTH 9 0
BBX 8 7 0 0
BITMAP
1B
36
6C
D8
6C
36
1B
ENDCHAR
STARTCHAR 0x00AC
ENCODING 172
SWIDTH 672 0
DWIDTH 7 0
BBX 6 4 0 1
BITMAP
FC
FC
0C
0C
ENDCHAR
STARTCHAR 0x00AD
ENCODING 173
SWIDTH 576 0
DWIDTH 6 0
BBX 5 2 0 3
BITMAP
F8
F8
ENDCHAR
STARTCHAR 0x00AE
ENCODING 174
SWIDTH 768 0
DWIDTH 8 0
BBX 7 7 0 0
BITMAP
7C
C6
BA
B2
AA
C6
7C
ENDCHAR
STARTCHAR 0x00AF
ENCODING 175
SWIDTH 576 0
DWIDTH 6 0
BBX 5 2 0 5
BITMAP
F8
F8
ENDCHAR
STARTCHAR 0x00B0
ENCODING 176
SWIDTH 576 0
DWIDTH 6 0
BBX 5 4 0 4
BITMAP
70
D8
D8
70
ENDCHAR
STARTCHAR 0x00B1
ENCODING 177
SWIDTH 672 0
DWIDTH 7 0
BBX 6 7 0 0
BITMAP
30
30
FC
30
30
00
FC
ENDCHAR
STARTCHAR 0x00B2
ENCODING 178
SWIDTH 480 0
DWIDTH 5 0
BBX 4 5 0 3
BITMAP
60
F0
30
60
F0
ENDCHAR
STARTCHAR 0x00B3
ENCODING 179
SWIDTH 480 0
DWIDTH 5 0
BBX 4 5 0 3
BITMAP
F0
30
60
30
E0
ENDCHAR
STARTCHAR 0x00B4
ENCODING 180
SWIDTH 576 0
DWIDTH 6 0
BBX 3 2 1 7
BITMAP
60
C0
ENDCHAR
STARTCHAR 0x00B5
ENCODING 181
SWIDTH 576 0
DWIDTH 6 0
BBX 5 7 0 -2
BITMAP
D8
D8
D8
D8
F8
C0
C0
ENDCHAR
STARTCHAR 0x00B6
ENCODING 182
SWIDTH 672 0
DWIDTH 7 0
BBX 6 7 0 0
BITMAP
7C
F4
F4
74
34
34
34
ENDCHAR
STARTCHAR 0x00B7
ENCODING 183
SWIDTH 672 0
DWIDTH 7 0
BBX 2 2 2 2
BITMAP
C0
C0
ENDCHAR
STARTCHAR 0x00B8
ENCODING 184
SWIDTH 576 0
DWIDTH 6 0
BBX 3 2 1 -2
BITMAP
60
C0
ENDCHAR
STARTCHAR 0x00B9
ENCODING 185
SWIDTH 480 0
DWIDTH 5 0
BBX 3 5 0 3
BITMAP
60
E0
60
60
60
ENDCHAR
STARTCHAR 0x00BA
ENCODING 186
SWIDTH 576 0
DWIDTH 6 0
BBX 5 6 0 2
BITMAP
70
D8
D8
70
00
F8
ENDCHAR
STARTCHAR 0x00BB
ENCODING 187
SWIDTH 864 0
DWIDTH 9 0
BBX 8 7 0 0
BITMAP
D8
6C
36
1B
36
6C
D8
ENDCHAR
STARTCHAR 0x00BC
ENCODING 188
SWIDTH 672 0
DWIDTH 7 0
BBX 6 8 0 0
BITMAP
60
E0
60
60
38
58
7C
18
ENDCHAR
STARTCHAR 0x00BD
ENCODING 189
SWIDTH 672 0
DWIDTH 7 0
BBX 6 8 0 0
BITMAP
60
E0
60
60
38
0C
18
3C
ENDCHAR
STARTCHAR 0x00BE
ENCODING 190
SWIDTH 672 0
DWIDTH 7 0
BBX 6 8 0 0
BITMAP
F0
60
30
E0
38
58
7C
18
ENDCHAR
STARTCHAR 0x00BF
ENCODING 191
SWIDTH 672 0
DWIDTH 7 0
BBX 6 7 0 0
BITMAP
30
00
30
60
CC
CC
78
ENDCHAR
STARTCHAR 0x00C0
ENCODING 192
SWIDTH 768 0
DWIDTH 8 0
BBX 7 9 0 0
BITMAP
30
18
00
38
28
6C
7C
C6
C6
ENDCHAR
STARTCHAR 0x00C1
ENCODING 193
SWIDTH 768 0
DWIDTH 8 0
BBX 7 9 0 0
BITMAP
18
30
00
38
28
6C
7C
C6
C6
ENDCHAR
STARTCHAR 0x00C2
ENCODING 194
SWIDTH 768 0
DWIDTH 8 0
BBX 7 9 0 0
BITMAP
38
6C
00
38
28
6C
7C
C6
C6
ENDCHAR
STARTCHAR 0x00C3
ENCODING 195
SWIDTH 768 0
DWIDTH 8 0
BBX 7 9 0 0
BITMAP
76
DC
00
38
28
6C
7C
C6
C6
ENDCHAR
STARTCHAR 0x00C4
ENCODING 196
SWIDTH 768 0
DWIDTH 8 0
BBX 7 9 0 0
BITMAP
6C
6C
00
38
28
6C
7C
C6
C6
ENDCHAR
STARTCHAR 0x00C5
ENCODING 197
SWIDTH 768 0
DWIDTH 8 0
BBX 7 9 0 0
BITMAP
3C
66
66
3C
28
6C
7C
C6
C6
ENDCHAR
STARTCHAR 0x00C6
ENCODING 198
SWIDTH 768 0
DWIDTH 8 0
BBX 7 7 0 0
BITMAP
7E
58
58
FE
D8
D8
DE
ENDCHAR
STARTCHAR 0x00C7
ENCODING 199
SWIDTH 672 0
DWIDTH 7 0
BBX 6 9 0 -2
BITMAP
78
CC
C0
C0
C0
CC
78
30
60
ENDCHAR
STARTCHAR 0x00C8
ENCODING 200
SWIDTH 576 0
DWIDTH 6 0
BBX 5 9 0 0
BITMAP
60
30
00
F8
C0
F8
C0
C0
F8
ENDCHAR
STARTCHAR 0x00C9
ENCODING 201
SWIDTH 576 0
DWIDTH 6 0
BBX 5 9 0 0
BITMAP
30
60
00
F8
C0
F8
C0
C0
F8
ENDCHAR
STARTCHAR 0x00CA
ENCODING 202
SWIDTH 576 0
DWIDTH 6 0
BBX 5 9 0 0
BITMAP
70
D8
00
F8
C0
F8
C0
C0
F8
ENDCHAR
STARTCHAR 0x00CB
ENCODING 203
SWIDTH 576 0
DWIDTH 6 0
BBX 5 9 0 0
BITMAP
D8
D8
00
F8
C0
F8
C0
C0
F8
ENDCHAR
STARTCHAR 0x00CC
ENCODING 204
SWIDTH 480 0
DWIDTH 5 0
BBX 3 9 1 0
BITMAP
C0
60
00
C0
C0
C0
C0
C0
C0
ENDCHAR
STARTCHAR 0x00CD
ENCODING 205
SWIDTH 480 0
DWIDTH 5 0
BBX 3 9 1 0
BITMAP
60
C0
00
C0
C0
C0
C0
C0
C0
ENDCHAR
STARTCHAR 0x00CE
ENCODING 206
SWIDTH 480 0
DWIDTH 5 0
BBX 5 9 0 0
BITMAP
70
D8
00
60
60
60
60
60
60
ENDCHAR
STARTCHAR 0x00CF
ENCODING 207
SWIDTH 480 0
DWIDTH 5 0
BBX 5 9 0 0
BITMAP
D8
D8
00
60
60
60
60
60
60
ENDCHAR
STARTCHAR 0x00D0
ENCODING 208
SWIDTH 768 0
DWIDTH 8 0
BBX 7 7 0 0
BITMAP
7C
66
66
F6
66
66
7C
ENDCHAR
STARTCHAR 0x00D1
ENCODING 209
SWIDTH 672 0
DWIDTH 7 0
BBX 6 9 0 0
BITMAP
74
B8
00
CC
EC
FC
DC
CC
CC
ENDCHAR
STARTCHAR 0x00D2
ENCODING 210
SWIDTH 672 0
DWIDTH 7 0
BBX 6 9 0 0
BITMAP
30
18
00
78
CC
CC
CC
CC
78
ENDCHAR
STARTCHAR 0x00D3
ENCODING 211
SWIDTH 672 0
DWIDTH 7 0
BBX 6 9 0 0
BITMAP
18
30
00
78
CC
CC
CC
CC
78
ENDCHAR
STARTCHAR 0x00D4
ENCODING 212
SWIDTH 672 0
DWIDTH 7 0
BBX 6 9 0 0
BITMAP
38
6C
00
78
CC
CC
CC
CC
78
ENDCHAR
STARTCHAR 0x00D5
ENCODING 213
SWIDTH 672 0
DWIDTH 7 0
BBX 7 9 0 0
BITMAP
76
DC
00
78
CC
CC
CC
CC
78
ENDCHAR
STARTCHAR 0x00D6
ENCODING 214
SWIDTH 672 0
DWIDTH 7 0
BBX 6 9 0 0
BITMAP
6C
6C
00
78
CC
CC
CC
CC
78
ENDCHAR
STARTCHAR 0x00D7
ENCODING 215
SWIDTH 672 0
DWIDTH 7 0
BBX 6 5 0 1
BITMAP
CC
78
30
78
CC
ENDCHAR
STARTCHAR 0x00D8
ENCODING 216
SWIDTH 672 0
DWIDTH 7 0
BBX 6 9 0 -1
BITMAP
04
78
CC
DC
EC
CC
CC
78
80
ENDCHAR
STARTCHAR 0x00D9
ENCODING 217
SWIDTH 672 0
DWIDTH 7 0
BBX 6 9 0 0
BITMAP
30
18
00
CC
CC
CC
CC
CC
78
ENDCHAR
STARTCHAR 0x00DA
ENCODING 218
SWIDTH 672 0
DWIDTH 7 0
BBX 6 9 0 0
BITMAP
18
30
00
CC
CC
CC
CC
CC
78
ENDCHAR
STARTCHAR 0x00DB
ENCODING 219
SWIDTH 672 0
DWIDTH 7 0
BBX 6 9 0 0
BITMAP
38
6C
00
CC
CC
CC
CC
CC
78
ENDCHAR
STARTCHAR 0x00DC
ENCODING 220
SWIDTH 672 0
DWIDTH 7 0
BBX 6 9 0 0
BITMAP
6C
6C
00
CC
CC
CC
CC
CC
78
ENDCHAR
STARTCHAR 0x00DD
ENCODING 221
SWIDTH 672 0
DWIDTH 7 0
BBX 6 9 0 0
BITMAP
18
30
00
CC
CC
78
30
30
30
ENDCHAR
STARTCHAR 0x00DE
ENCODING 222
SWIDTH 672 0
DWIDTH 7 0
BBX 6 8 0 0
BITMAP
C0
F8
CC
CC
CC
F8
C0
C0
ENDCHAR
STARTCHAR 0x00DF
ENCODING 223
SWIDTH 672 0
DWIDTH 7 0
BBX 6 9 0 -2
BITMAP
78
CC
CC
F8
CC
CC
F8
C0
C0
ENDCHAR
STARTCHAR 0x00E0
ENCODING 224
SWIDTH 576 0
DWIDTH 6 0
BBX 5 9 0 0
BITMAP
60
30
00
00
70
18
78
D8
78
ENDCHAR
STARTCHAR 0x00E1
ENCODING 225
SWIDTH 576 0
DWIDTH 6 0
BBX 5 9 0 0
BITMAP
30
60
00
00
70
18
78
D8
78
ENDCHAR
STARTCHAR 0x00E2
ENCODING 226
SWIDTH 576 0
DWIDTH 6 0
BBX 5 9 0 0
BITMAP
70
D8
00
00
70
18
78
D8
78
ENDCHAR
STARTCHAR 0x00E3
ENCODING 227
SWIDTH 576 0
DWIDTH 6 0
BBX 7 9 -1 0
BITMAP
76
DC
00
00
38
0C
3C
6C
3C
ENDCHAR
STARTCHAR 0x00E4
ENCODING 228
SWIDTH 576 0
DWIDTH 6 0
BBX 5 9 0 0
BITMAP
D8
D8
00
00
70
18
78
D8
78
ENDCHAR
STARTCHAR 0x00E5
ENCODING 229
SWIDTH 576 0
DWIDTH 6 0
BBX 6 9 0 0
BITMAP
78
CC
78
00
70
18
78
D8
78
ENDCHAR
STARTCHAR 0x00E6
ENCODING 230
SWIDTH 864 0
DWIDTH 9 0
BBX 8 5 0 0
BITMAP
7E
1B
7F
D8
7F
ENDCHAR
STARTCHAR 0x00E7
ENCODING 231
SWIDTH 576 0
DWIDTH 6 0
BBX 5 7 0 -2
BITMAP
70
D8
C0
C0
78
30
60
ENDCHAR
STARTCHAR 0x00E8
ENCODING 232
SWIDTH 576 0
DWIDTH 6 0
BBX 5 9 0 0
BITMAP
60
30
00
00
70
D8
F8
C0
78
ENDCHAR
STARTCHAR 0x00E9
ENCODING 233
SWIDTH 576 0
DWIDTH 6 0
BBX 5 9 0 0
BITMAP
30
60
00
00
70
D8
F8
C0
78
ENDCHAR
STARTCHAR 0x00EA
ENCODING 234
SWIDTH 576 0
DWIDTH 6 0
BBX 5 9 0 0
BITMAP
70
D8
00
00
70
D8
F8
C0
78
ENDCHAR
STARTCHAR 0x00EB
ENCODING 235
SWIDTH 576 0
DWIDTH 6 0
BBX 5 9 0 0
BITMAP
D8
D8
00
00
70
D8
F8
C0
78
ENDCHAR
STARTCHAR 0x00EC
ENCODING 236
SWIDTH 480 0
DWIDTH 5 0
BBX 3 9 1 0
BITMAP
C0
60
00
00
C0
C0
C0
C0
C0
ENDCHAR
STARTCHAR 0x00ED
ENCODING 237
SWIDTH 480 0
DWIDTH 5 0
BBX 3 9 1 0
BITMAP
60
C0
00
00
C0
C0
C0
C0
C0
ENDCHAR
STARTCHAR 0x00EE
ENCODING 238
SWIDTH 480 0
DWIDTH 5 0
BBX 5 9 0 0
BITMAP
70
D8
00
00
60
60
60
60
60
ENDCHAR
STARTCHAR 0x00EF
ENCODING 239
SWIDTH 480 0
DWIDTH 5 0
BBX 5 9 0 0
BITMAP
D8
D8
00
00
60
60
60
60
60
ENDCHAR
STARTCHAR 0x00F0
ENCODING 240
SWIDTH 576 0
DWIDTH 6 0
BBX 5 9 0 0
BITMAP
C0
78
E0
30
70
D8
D8
D8
70
ENDCHAR
STARTCHAR 0x00F1
ENCODING 241
SWIDTH 576 0
DWIDTH 6 0
BBX 7 9 -1 0
BITMAP
76
DC
00
00
78
6C
6C
6C
6C
ENDCHAR
STARTCHAR 0x00F2
ENCODING 242
SWIDTH 576 0
DWIDTH 6 0
BBX 5 9 0 0
BITMAP
60
30
00
00
70
D8
D8
D8
70
ENDCHAR
STARTCHAR 0x00F3
ENCODING 243
SWIDTH 576 0
DWIDTH 6 0
BBX 5 9 0 0
BITMAP
30
60
00
00
70
D8
D8
D8
70
ENDCHAR
STARTCHAR 0x00F4
ENCODING 244
SWIDTH 576 0
DWIDTH 6 0
BBX 5 9 0 0
BITMAP
70
D8
00
00
70
D8
D8
D8
70
ENDCHAR
STARTCHAR 0x00F5
ENCODING 245
SWIDTH 576 0
DWIDTH 6 0
BBX 7 9 -1 0
BITMAP
76
DC
00
00
38
6C
6C
6C
38
ENDCHAR
STARTCHAR 0x00F6
ENCODING 246
SWIDTH 576 0
DWIDTH 6 0
BBX 5 9 0 0
BITMAP
D8
D8
00
00
70
D8
D8
D8
70
ENDCHAR
STARTCHAR 0x00F7
ENCODING 247
SWIDTH 672 0
DWIDTH 7 0
BBX 6 7 0 0
BITMAP
30
30
00
FC
00
30
30
ENDCHAR
STARTCHAR 0x00F8
ENCODING 248
SWIDTH 576 0
DWIDTH 6 0
BBX 5 7 0 -1
BITMAP
08
70
D8
F8
D8
70
80
ENDCHAR
STARTCHAR 0x00F9
ENCODING 249
SWIDTH 576 0
DWIDTH 6 0
BBX 5 9 0 0
BITMAP
60
30
00
00
D8
D8
D8
D8
78
ENDCHAR
STARTCHAR 0x00FA
ENCODING 250
SWIDTH 576 0
DWIDTH 6 0
BBX 5 9 0 0
BITMAP
30
60
00
00
D8
D8
D8
D8
78
ENDCHAR
STARTCHAR 0x00FB
ENCODING 251
SWIDTH 576 0
DWIDTH 6 0
BBX 5 9 0 0
BITMAP
70
D8
00
00
D8
D8
D8
D8
78
ENDCHAR
STARTCHAR 0x00FC
ENCODING 252
SWIDTH 576 0
DWIDTH 6 0
BBX 5 9 0 0
BITMAP
D8
D8
00
00
D8
D8
D8
D8
78
ENDCHAR
STARTCHAR 0x00FD
ENCODING 253
SWIDTH 576 0
DWIDTH 6 0
BBX 5 11 0 -2
BITMAP
30
60
00
00
D8
D8
D8
D8
78
18
70
ENDCHAR
STARTCHAR 0x00FE
ENCODING 254
SWIDTH 576 0
DWIDTH 6 0
BBX 5 9 0 -2
BITMAP
C0
C0
F0
D8
D8
D8
F0
C0
C0
ENDCHAR
STARTCHAR 0x00FF
ENCODING 255
SWIDTH 576 0
DWIDTH 6 0
BBX 5 11 0 -2
BITMAP
D8
D8
00
00
D8
D8
D8
D8
78
18
70
ENDCHAR
ENDFONT
